<?xml version="1.0" standalone="no"?>
<!DOCTYPE svg PUBLIC "-//W3C//DTD SVG 20010904//EN"
 "http://www.w3.org/TR/2001/REC-SVG-20010904/DTD/svg10.dtd">
<svg version="1.0" xmlns="http://www.w3.org/2000/svg"
 width="256.000000pt" height="256.000000pt" viewBox="0 0 256.000000 256.000000"
 preserveAspectRatio="xMidYMid meet">

<g transform="translate(0.000000,256.000000) scale(0.100000,-0.100000)"
fill="#000000" stroke="none">
<path d="M1380 2340 c-10 -6 -27 -72 -51 -197 l-36 -188 -79 -8 c-403 -40
-714 -306 -811 -694 -26 -102 -23 -322 5 -428 30 -109 101 -249 172 -340 96
-119 282 -255 330 -240 27 9 137 129 185 204 88 137 157 310 186 469 7 39 16
72 19 72 3 0 13 -26 23 -58 26 -84 108 -250 170 -345 62 -95 198 -261 234
-284 30 -20 49 -12 132 57 131 109 233 267 287 446 25 80 28 104 28 244 0 140
-3 164 -28 245 -44 146 -122 279 -224 387 l-34 36 37 222 c28 159 35 224 27
232 -8 8 -533 177 -552 178 -3 0 -12 -5 -20 -10z m274 -151 c110 -34 205 -65
210 -70 8 -7 -38 -326 -49 -337 -2 -2 -34 15 -71 37 -84 51 -198 95 -284 111
-36 6 -70 13 -76 15 -8 2 -6 33 8 102 34 181 39 203 50 203 6 0 101 -28 212
-61z m-205 -339 c67 -13 126 -35 200 -71 94 -47 117 -64 207 -153 82 -83 108
-117 146 -191 62 -120 88 -216 95 -345 9 -175 -36 -342 -132 -492 -47 -72
-178 -208 -200 -208 -20 0 -120 115 -187 215 -121 180 -211 401 -245 604 -19
110 -33 132 -73 111 -17 -9 -20 -21 -20 -73 0 -34 -5 -101 -10 -147 -38 -311
-132 -545 -292 -724 l-45 -50 -44 26 c-166 99 -304 284 -361 485 -30 103 -32
313 -4 413 119 431 534 689 965 600z"/>
<path d="M1195 1724 c-11 -2 -45 -9 -75 -15 -275 -55 -504 -301 -550 -589 -14
-90 -11 -129 13 -144 34 -22 51 4 60 90 26 255 198 471 440 550 70 23 99 27
197 27 98 0 127 -4 197 -27 242 -79 414 -295 440 -550 9 -86 26 -112 60 -90
24 15 27 54 13 144 -45 281 -253 511 -529 585 -57 15 -229 28 -266 19z"/>
</g>
</svg>
